<svg xmlns="http://www.w3.org/2000/svg" width="0" height="0"><defs><symbol id="manipulate" viewBox="0 0 57 19"><path d="M34.35 5.85l-1.06 1.06 1.84 1.84h-5.88V2.87l1.84 1.84 1.06-1.06L28.5 0l-3.65 3.65 1.06 1.06 1.84-1.84v5.88h-5.88l1.84-1.84-1.06-1.06L19 9.5l3.65 3.65 1.06-1.06-1.84-1.84h5.88v5.88l-1.84-1.84-1.06 1.06L28.5 19l3.65-3.65-1.06-1.06-1.84 1.84v-5.88h5.88l-1.84 1.84 1.06 1.06L38 9.5l-3.65-3.65zM51.2 8.53V5.19l-1.28 1.28A4.2 4.2 0 0047 5.31a4.25 4.25 0 103 7.23l-.71-.71A3.25 3.25 0 1147 6.31a3.21 3.21 0 012.2.87l-1.34 1.35z"/></symbol><symbol id="freedraw" viewBox="0 0 19 19"><path d="M15.12 2.76l1.12 1.12-4.65 4.65-1.12-1.12 4.65-4.65m0-2.76L7.71 7.41l3.88 3.88L19 3.88 15.12 0zM7.16 7.96l-.85 4.73 4.73-.85-3.88-3.88zM4.25 18.35a4.68 4.68 0 01-3-.82 2.4 2.4 0 01-.85-1.92 2.91 2.91 0 011.08-2.26 4.13 4.13 0 012.88-.76c.75.12 1.06.32 1.11.75s-.56.66-1.14.66-2.33.51-2.16 1.56c.19 1.41 2.07 1 4 .64a9 9 0 002.46-1.07 8.23 8.23 0 014.58-1.42 5.15 5.15 0 014.33 2.42 1 1 0 11-1.74.9 3.25 3.25 0 00-2.71-1.37 6.5 6.5 0 00-3.51 1.18 10.77 10.77 0 01-3 1.28 13.18 13.18 0 01-2.33.23z"/></symbol><symbol id="circle" viewBox="0 0 19 19"><path d="M9.5 2A7.5 7.5 0 112 9.5 7.5 7.5 0 019.5 2m0-2A9.5 9.5 0 1019 9.5 9.5 9.5 0 009.5 0z"/><path d="M11.22 9.84v-.68H9.84V7.78h-.68v1.38H7.78v.68h1.38v1.38h.68V9.84h1.38z"/></symbol><symbol id="pointer" viewBox="0 0 19 19"><path d="M15.64 1.65l-8.78 8.78-2.17-2.17-1.44 7.49 7.49-1.44-2.17-2.17 8.78-8.78-1.71-1.71zM3.44 17.62v-.68H2.06v-1.38h-.68v1.38H0v.68h1.38V19h.68v-1.38h1.38z"/></symbol></defs></svg>