<svg xmlns="http://www.w3.org/2000/svg" width="0" height="0"><defs><symbol id="freedraw" viewBox="0 0 19 19"><path d="M15.12 2.76l1.12 1.12-4.65 4.65-1.12-1.12 4.65-4.65m0-2.76L7.71 7.41l3.88 3.88L19 3.88 15.12 0zM7.16 7.96l-.85 4.73 4.73-.85-3.88-3.88zM4.25 18.35a4.68 4.68 0 01-3-.82 2.4 2.4 0 01-.85-1.92 2.91 2.91 0 011.08-2.26 4.13 4.13 0 012.88-.76c.75.12 1.06.32 1.11.75s-.56.66-1.14.66-2.33.51-2.16 1.56c.19 1.41 2.07 1 4 .64a9 9 0 002.46-1.07 8.23 8.23 0 014.58-1.42 5.15 5.15 0 014.33 2.42 1 1 0 11-1.74.9 3.25 3.25 0 00-2.71-1.37 6.5 6.5 0 00-3.51 1.18 10.77 10.77 0 01-3 1.28 13.18 13.18 0 01-2.33.23z"/></symbol><symbol id="circle" viewBox="0 0 19 19"><path d="M9.5 2A7.5 7.5 0 112 9.5 7.5 7.5 0 019.5 2m0-2A9.5 9.5 0 1019 9.5 9.5 9.5 0 009.5 0z"/></symbol><symbol id="pointer" viewBox="0 0 19 19"><path d="M14.84 2.45l-8.78 8.78-2.17-2.17-1.44 7.49 7.49-1.44-2.17-2.17 8.78-8.78-1.71-1.71z"/></symbol></defs></svg>