<svg xmlns="http://www.w3.org/2000/svg" width="0" height="0" style="display:none">
	<defs>
		<symbol id="openeyes-logo" viewBox="0 0 300.06 55.35"><title>OpenEyes</title><rect class="a" x="28.74" y="13.65" width="6.12" height="15.27"/><path class="a" d="M39.54,21.9A10.44,10.44,0,1,1,24,21.9l-4-4.05a16.2,16.2,0,1,0,23.61,0Z"/><path class="a" d="M32,0C13.86,0,3.72,13.41,0,24l4.95,1.32C8.25,17.25,16.62,5,31.95,5s23.73,12.3,27,20.34L64,24C60.24,13.41,50.1,0,32,0Z"/><path class="a" d="M93.63,9C83.46,9,76.86,16.74,76.86,27c0,9.81,6,17.55,16.23,17.55s17-6.87,17-18.15C110,16.89,104.22,9,93.63,9Zm-.15,29.43c-5.22,0-8.4-4.77-8.4-11.52s3-11.73,8.34-11.73,8.34,5.31,8.34,11.52c0,6.66-3,11.7-8.28,11.7Z"/><path class="a" d="M130.41,18.42a9.6,9.6,0,0,0-8.34,4h0L121.71,19h-6.87c0,2.31.21,5.13.21,8.4V54h7.77V41.7h0a7.77,7.77,0,0,0,6.51,3c5.58,0,11.37-4.29,11.37-13.41C140.79,23.19,135.87,18.42,130.41,18.42Zm-3,20.16A4.71,4.71,0,0,1,123,34.92a7.74,7.74,0,0,1-.15-1.65V29.85a6,6,0,0,1,.15-1.38,4.89,4.89,0,0,1,4.65-3.93c3.48,0,5.28,3,5.28,7s-2,7-5.4,7Z"/><path class="a" d="M157,18.42a12.54,12.54,0,0,0-12.66,12.42q0,.46,0,.93c0,7.83,4.86,12.78,13.35,12.78a24.66,24.66,0,0,0,9-1.59l-1-5.28a22,22,0,0,1-6.9,1c-3.63,0-6.81-1.53-7-4.77H168a18.48,18.48,0,0,0,.27-3C168.15,24.72,165,18.42,157,18.42Zm-5.28,10.23a5.1,5.1,0,0,1,4.8-5.07A4.53,4.53,0,0,1,161,28.65Z"/><path class="a" d="M187.59,18.42a9.15,9.15,0,0,0-7.59,4h-.15L179.49,19h-6.87c0,2.19.21,4.86.21,8V44h7.77V29.58a5.55,5.55,0,0,1,.3-1.95,4.14,4.14,0,0,1,3.93-3c2.82,0,3.93,2.19,3.93,5.43V43.92h7.77V29.19C196.56,21.81,192.72,18.42,187.59,18.42Z"/><polygon class="a" points="211.89 29.43 224.58 29.43 224.58 23.1 211.89 23.1 211.89 15.93 225.36 15.93 225.36 9.54 204.09 9.54 204.09 44.01 226.08 44.01 226.08 37.62 211.89 37.62 211.89 29.43"/><path class="a" d="M242.61,31.29c-.36,1.44-.78,3.33-1.14,4.65h-.15c-.3-1.32-.81-3.18-1.23-4.65L236.37,19H227.7L237,42a2.82,2.82,0,0,1,.36,1.29,2,2,0,0,1-.42,1.14,9,9,0,0,1-3.21,3,9.81,9.81,0,0,1-3.39,1.32l1.65,6.6a14.34,14.34,0,0,0,7.53-3.42c2.82-2.52,5.22-6.51,8.79-16.41l5.82-16.47h-8.46Z"/><path class="a" d="M267.72,18.42A12.54,12.54,0,0,0,255,30.75q0,.53,0,1.05c0,7.83,4.86,12.78,13.35,12.78a24.69,24.69,0,0,0,9-1.59l-1-5.28a22,22,0,0,1-6.9,1c-3.63,0-6.81-1.53-7-4.77h16.11a18.48,18.48,0,0,0,.27-3C279,24.72,275.79,18.42,267.72,18.42Zm-5.28,10.23a5.1,5.1,0,0,1,4.8-5.07,4.53,4.53,0,0,1,4.41,5.07Z"/><path class="a" d="M293.19,28.71c-3-1.08-4-1.68-4-3s1.08-2,3-2a12.27,12.27,0,0,1,5.43,1.44L299,19.74a16.77,16.77,0,0,0-7-1.44c-6.18,0-10.17,3.54-10.17,8.25,0,3,2,5.73,7.11,7.47,3,1,3.69,1.59,3.69,3s-1,2.1-3.33,2.1a15.21,15.21,0,0,1-6.69-1.89l-1.38,5.58a17.67,17.67,0,0,0,8.07,1.8c7.17,0,10.86-3.48,10.86-8.13C300,32.76,298,30.36,293.19,28.71Z"/>
		</symbol>
	</defs>
</svg>