<svg xmlns="http://www.w3.org/2000/svg" width="0" height="0"><defs><symbol id="openeyes-logo" viewBox="0 0 321.98 59.73"><path class="a" d="M56.08 13.91h8v5.8c2.57-3.62 6.19-6.52 11.79-6.52 8.23 0 16.19 6.52 16.19 18v.13c0 11.53-7.9 18-16.19 18a14.17 14.17 0 01-11.79-6.12v16.02h-8zm27.86 17.45v-.13c0-6.72-4.55-11.13-10-11.13s-10.09 4.48-10.09 11.13v.13c0 6.72 4.74 11.13 10.14 11.13s9.95-4.28 9.95-11.13zM95.65 31.43v-.13c0-9.95 7-18.11 17-18.11 11.06 0 16.66 8.69 16.66 18.7 0 .72-.07 1.45-.13 2.24h-25.56c.85 5.66 4.87 8.82 10 8.82 3.88 0 6.65-1.45 9.42-4.15l4.68 4.2a17.59 17.59 0 01-14.22 6.52c-10.08-.05-17.85-7.36-17.85-18.09zm25.75-2.57c-.53-5.14-3.56-9.15-8.83-9.15-4.87 0-8.29 3.75-9 9.15zM134.7 13.91h8v5.4c2.24-3.29 5.47-6.12 10.87-6.12 7.83 0 12.38 5.27 12.38 13.36v22.13h-8V28.93c0-5.4-2.7-8.5-7.44-8.5s-7.84 3.23-7.84 8.63v19.62h-8zM185.69 28.28h26.4v-5.69h-26.4V7.02h29.37v-5.7h-35.33v48.63h35.65v-5.7h-29.69V28.28zM265.2 15.82v-.13a13.48 13.48 0 00-3.86-9.46c-3.17-3.17-8.1-4.91-13.87-4.91h-20.63V50h6V30.85H246L260.67 50h7.56l-15.52-20.13c7.85-1.74 12.49-6.87 12.49-14.05zM232.8 7h14.47c7.49 0 12 3.29 12 8.8v.2c0 5.63-4.78 9.27-12.17 9.27h-14.3zM294.3 22.68c-11.5-2.36-12.42-5.27-12.42-8.83v-.13c0-4.31 4.2-7.43 10-7.43a18.6 18.6 0 0112.93 4.89l1 .86 3.79-4.71-1-.79A24.27 24.27 0 00292 .66c-9.17 0-16.09 5.75-16.09 13.38v.14c0 7.71 4.8 11.83 16.56 14.21 11.14 2.24 12 5.09 12 8.57v.13c0 4.64-4.27 7.89-10.39 7.89s-10.58-1.83-15.66-6.52l-1-.88-3.92 4.49.93.84c6 5.32 11.95 7.7 19.41 7.7 9.75 0 16.55-5.7 16.55-13.85v-.13c.07-7.47-4.76-11.63-16.09-13.95zM18.83 21.08l9.07 9.11H1.63v-9.11h17.2z"/><path class="a" d="M15 14.1a15.57 15.57 0 110 23.06l-6.06 6.06A24.13 24.13 0 108.94 8z"/></symbol><symbol id="openeyes-logo-hide" viewBox="0 0 321.98 59.73"><path d="M101.46 10.19c-10.88 0-17.93 8.26-17.93 19.3 0 10.5 6.4 18.75 17.33 18.75 10.77 0 18.1-7.33 18.1-19.41.04-10.16-6.18-18.64-17.5-18.64zm-.16 31.44c-5.58 0-9-5.08-9-12.3s3.28-12.52 8.91-12.52 8.91 5.69 8.91 12.3c.03 7.16-3.19 12.52-8.82 12.52zM140.77 20.31a10.26 10.26 0 00-8.91 4.32h-.11l-.38-3.72h-7.22c.11 2.46.22 5.47.22 9v28.56h8.31V45.18h.11c1.2 1.75 3.72 3.06 6.94 3.06 6 0 12.14-4.59 12.14-14.32-.01-8.53-5.25-13.61-11.1-13.61zm-3.07 21.54a5 5 0 01-4.87-3.94 8.28 8.28 0 01-.16-1.75V32.5a6.42 6.42 0 01.16-1.48 5.22 5.22 0 015-4.21c3.72 0 5.63 3.23 5.63 7.49-.02 4.54-2.15 7.55-5.76 7.55zM169.19 20.31c-9.29 0-13.5 7.49-13.5 14.27 0 8.37 5.19 13.67 14.27 13.67a26.36 26.36 0 009.68-1.69l-1.09-5.63a23.55 23.55 0 01-7.39 1.07c-3.88 0-7.27-1.64-7.54-5.08h17.22a19.74 19.74 0 00.27-3.28c0-6.64-3.28-13.33-11.92-13.33zm-5.63 10.93c.22-2.24 1.64-5.41 5.14-5.41 3.83 0 4.7 3.39 4.7 5.41zM201.88 20.31a9.79 9.79 0 00-8.26 4.26h-.16l-.38-3.66h-7.22c.11 2.35.22 5.19.22 8.53v18.2h8.31V32.23a5.92 5.92 0 01.33-2.08 4.43 4.43 0 014.21-3.15c3 0 4.21 2.35 4.21 5.79v14.85h8.31V31.79c0-7.87-4.1-11.48-9.57-11.48zM227.85 32.06h13.56v-6.78h-13.56v-7.65h14.37v-6.84h-22.74v36.85h23.51v-6.83h-15.14v-8.75zM260.65 34c-.38 1.53-.82 3.55-1.2 5h-.16c-.33-1.42-.87-3.39-1.31-5l-4-13.12h-9.24l9.79 24.44a3 3 0 01.38 1.37 2.17 2.17 0 01-.44 1.2 9.55 9.55 0 01-3.47 3.36 10.48 10.48 0 01-3.61 1.42l1.75 7.05a15.32 15.32 0 008-3.66c3-2.68 5.58-6.94 9.4-17.55l6.23-17.6h-8.91zM287.49 20.31c-9.29 0-13.5 7.49-13.5 14.27 0 8.37 5.19 13.67 14.27 13.67a26.37 26.37 0 009.68-1.69l-1.09-5.63a23.55 23.55 0 01-7.4 1.07c-3.88 0-7.27-1.64-7.54-5.08h17.22a19.74 19.74 0 00.27-3.28c0-6.64-3.28-13.33-11.91-13.33zm-5.63 10.93c.22-2.24 1.64-5.41 5.14-5.41 3.83 0 4.7 3.39 4.7 5.41zM314.71 31.3c-3.28-1.15-4.32-1.8-4.32-3.06s1.15-2.24 3.17-2.24a13.12 13.12 0 015.79 1.53l1.48-5.74a17.93 17.93 0 00-7.54-1.53c-6.62 0-10.88 3.77-10.88 8.8-.05 3.12 2.08 6.12 7.6 8 3.12 1 3.94 1.69 3.94 3.06s-1 2.24-3.55 2.24a16.24 16.24 0 01-7.16-2l-1.48 6a18.89 18.89 0 008.64 1.91c7.65 0 11.59-3.72 11.59-8.69-.06-3.96-2.2-6.58-7.28-8.28zM38.67 27.15l-6.78 6.75V14.35h6.78v12.8z"/><path d="M43.87 24.3a11.59 11.59 0 11-17.16 0l-4.51-4.51a18 18 0 1026.18 0z"/><path d="M35.48 0C15.37 0 4.12 14.88 0 26.7l5.48 1.45c3.66-8.94 13-22.58 30-22.58s26.33 13.64 30 22.58L71 26.7C66.83 14.88 55.58 0 35.48 0z"/></symbol></defs></svg>