<svg xmlns="http://www.w3.org/2000/svg" width="0" height="0"><defs><symbol id="patient-icon" viewBox="0 0 60 60"><path d="M52.14 41.32v-.18c-.08-.85-.16-1.6-.2-2.2C51.56 34 50 22.52 43.51 21.12a13.79 13.79 0 00-4.15-3.72 11 11 0 002-6.29 11.1 11.1 0 00-22.2 0 10.91 10.91 0 00.27 2.42 5 5 0 00-2.14-.64c-6.87-.36-9 10.75-9.56 15.54-.07.56-.17 1.26-.29 2.06-.91 6.26-1.58 12.08.24 14.65 1.09 1.54 3 2.34 5.47 2.24a10.89 10.89 0 001.45-.19C17.32 50.58 23.6 56 36 56c.53 0 1.19 0 1.8-.05l.12.25c1.14 2.17 4.43 3.55 7.1 3.79h.94a6.35 6.35 0 005.16-2.19c2.17-2.74 1.72-9.36 1.02-16.48zm-15.29-6.26c0 .55.08 1 .09 1.43.1 2.18.07 4.83 0 7.41 0 3.21 0 5.86.08 7.91-15.08.32-20-8-20.48-9-1.54-2.91-2-21.64 3.1-25.11.45-.09.94-.17 1.47-.23a11.07 11.07 0 0015.16 2.87A12.83 12.83 0 0139 22.16l-.3.3c-2.35 2.54-2.2 7.61-1.85 12.6zM30.23 4.11a7 7 0 11-7 7 7 7 0 017-7zm10.82 32.2c0-.43-.06-1-.1-1.58-.17-2.4-.58-8 .77-9.48a.5.5 0 01.44-.18c2.7 0 5 5.83 5.65 14.17.05.67.13 1.51.23 2.46.29 2.94 1.16 11.88-.15 13.55a3 3 0 01-2.5.59 5.85 5.85 0 01-3.83-1.61c-.55-1-.49-6.83-.46-10.31.03-2.59.06-5.3-.04-7.61zm-28.62 6.95a1.9 1.9 0 01-1.43-.51c-1-1.44.1-9.13.47-11.68v-.13a46.78 46.78 0 00.96 12.32z"/></symbol><symbol id="home-icon" viewBox="0 0 80 40"><path d="M51 35h-9.52v-8h-3v8H29V21h-7L40 3l18 18h-7zm-6.52-3H48V18h2.8L40 7.24 29.2 18H32v14h3.52v-8h9z"/></symbol><symbol id="logout-icon" viewBox="0 0 80 40"><path d="M13.32 19v3h31.62L33.71 33.23l2.12 2.12L50.68 20.5 35.83 5.65l-2.12 2.12L44.94 19H13.32z"/><path d="M64 34H49v-2h13V10H49V8h15v26z"/></symbol><symbol id="hotlist-icon" viewBox="0 0 80 40"><path d="M51.64 25.52c0-.46-.09-.87-.11-1.19-.2-2.6-1-8.32-4.3-9.37h-.07a8 8 0 00-1.71-1.64 6.1 6.1 0 10-11.28-2.13 1.5 1.5 0 00-.47.16c-4.56 2.53-3.78 14.09-2.7 16.17.57 1.08 3.62 5.94 12.1 5.94h.53a5.28 5.28 0 003.88 2h.52a3.64 3.64 0 003-1.29c1.2-1.48.97-4.8.61-8.65zM40.19 7.15a3.09 3.09 0 11-3.09 3.09 3.09 3.09 0 013.09-3.09zM43 22.41v8.03c-6.7 0-9-3.53-9.39-4.32C32.9 24.54 32.85 15.65 35 14h.38a6.05 6.05 0 007.91 1.46c.22.13.47.3.6.4-1.16 1.45-1.1 4.02-.89 6.55zm5.7 9.95a.8.8 0 01-.62.14 3.34 3.34 0 01-1.81-.55 27.62 27.62 0 01-.2-5v-3.89c0-.22 0-.5-.05-.81-.22-3 0-4.07.22-4.41.91.11 2 2.67 2.35 6.76 0 .34.07.77.12 1.26.08 1.36.5 5.65-.04 6.5zM22.08 29.55L12.54 20l9.54-9.55 2.12 2.12L16.78 20l7.42 7.43-2.12 2.12zM59.39 10.45L68.94 20l-9.55 9.55-2.12-2.12L64.7 20l-7.43-7.43 2.12-2.12z"/></symbol><symbol id="hotlist-vc-icon" viewBox="0 0 80 40"><path d="M51.64 25.52c0-.46-.09-.87-.11-1.19-.2-2.6-1-8.32-4.3-9.37h-.07a8 8 0 00-1.71-1.64 6.1 6.1 0 10-11.28-2.13 1.5 1.5 0 00-.47.16c-4.56 2.53-3.78 14.09-2.7 16.17.57 1.08 3.62 5.94 12.1 5.94h.53a5.28 5.28 0 003.88 2h.52a3.64 3.64 0 003-1.29c1.2-1.48.97-4.8.61-8.65zM40.19 7.15a3.09 3.09 0 11-3.09 3.09 3.09 3.09 0 013.09-3.09zM43 22.41v8.03c-6.7 0-9-3.53-9.39-4.32C32.9 24.54 32.85 15.65 35 14h.38a6.05 6.05 0 007.91 1.46c.22.13.47.3.6.4-1.16 1.45-1.1 4.02-.89 6.55zm5.7 9.95a.8.8 0 01-.62.14 3.34 3.34 0 01-1.81-.55 27.62 27.62 0 01-.2-5v-3.89c0-.22 0-.5-.05-.81-.22-3 0-4.07.22-4.41.91.11 2 2.67 2.35 6.76 0 .34.07.77.12 1.26.08 1.36.5 5.65-.04 6.5zM60.34 5v3h8.99v24h-8.99v3h11.99V5H60.34zM21.66 35v-3h-9V8h9V5h-12v30h12z"/></symbol><symbol id="quicklook-icon" viewBox="0 0 30 30"><path d="M15 4.83c8.28 0 15 4.55 15 10.17a15 15 0 00-30 0C0 9.39 6.72 4.83 15 4.83zM15 25.17C6.72 25.17 0 20.61 0 15a15 15 0 1030 0c0 5.61-6.72 10.17-15 10.17z"/><circle cx="15" cy="15" r="6"/></symbol><symbol id="warning-icon" viewBox="0 0 30 30"><path d="M15 13.66l4.43 7.84h-8.86L15 13.66M15 3.5l-13 23h26l-13-23z"/></symbol><symbol id="shortcuts-icon" viewBox="0 0 80 40"><path d="M42 8h26v2H42zM42 16h26v2H42zM42 24h26v2H42zM34.48 7.64l-2.12-2.12L10 27.88V12H7v21h21v-3H12.12L34.48 7.64zM42 32h2v2h-2zM50 32h2v2h-2zM58 32h2v2h-2zM66 32h2v2h-2z"/></symbol><symbol id="trials-icon" viewBox="0 0 60 60"><circle cx="7" cy="7" r="7"/><circle cx="53.1" cy="7" r="7"/><circle cx="30" cy="7" r="7"/><circle cx="7" cy="41" r="7"/><circle cx="53.1" cy="41" r="7"/><circle cx="7" cy="24" r="7"/><circle cx="53.1" cy="24" r="7"/><circle cx="30" cy="24" r="7"/><path d="M36.88 52a10.62 10.62 0 10-13.76 0c-6.45 2.09-10.77 7.11-10.77 13.27a2.19 2.19 0 004.39 0c0-5.67 5.7-9.94 13.27-9.94s13.27 4.27 13.27 9.94a2.19 2.19 0 004.39 0C47.66 59.12 43.33 54.1 36.88 52zM30 37.7a6.24 6.24 0 11-6.24 6.24A6.24 6.24 0 0130 37.7z"/></symbol><symbol id="charts-icon" viewBox="0 0 19 19"><path d="M0 17.5h19V19H0z"/><path d="M.65 19.37l-1.3-.74L6.84 5.39 11 9.27l7.4-9.72 1.2.9-8.41 11.05-3.98-3.72L.65 19.37z"/><circle cx="17.28" cy="5.08" r=".75"/><circle cx="14.17" cy="7.85" r=".75"/><circle cx="17.28" cy="7.85" r=".75"/><circle cx="7.94" cy="10.62" r=".75"/><circle cx="14.17" cy="10.62" r=".75"/><circle cx="17.28" cy="10.62" r=".75"/><circle cx="4.83" cy="13.38" r=".75"/><circle cx="7.94" cy="13.38" r=".75"/><circle cx="11.06" cy="13.38" r=".75"/><circle cx="14.17" cy="13.38" r=".75"/><circle cx="17.28" cy="13.38" r=".75"/><circle cx="4.83" cy="16.15" r=".75"/><circle cx="7.94" cy="16.15" r=".75"/><circle cx="11.06" cy="16.15" r=".75"/><circle cx="14.17" cy="16.15" r=".75"/><circle cx="17.28" cy="16.15" r=".75"/></symbol><symbol id="clinic-icon" viewBox="0 0 80 40"><path d="M53.34 27.23a3.7 3.7 0 00-.66-.38 4.64 4.64 0 10-8.74.07 4 4 0 00-.49.3 6.07 6.07 0 00-1.88 3.48 13.12 13.12 0 00-.3 4.1c.17 1.63.74 2.68 1.7 3.1a17 17 0 005.23.6c.7 0 4.25 0 5.58-.59.86-.36 1.36-1.24 1.53-2.69.25-2.09-.21-6.68-1.97-7.99zm-5-.06a1.83 1.83 0 111.83-1.83 1.84 1.84 0 01-1.87 1.83zm2.59 2a2.38 2.38 0 01.77.3 10.13 10.13 0 01.89 5.15 4.1 4.1 0 01-.12.77c-1.57.37-7 .43-8.17 0a2.89 2.89 0 01-.21-.91c-.23-2.17.54-4.66 1-5a2.22 2.22 0 01.66-.29 4.74 4.74 0 005.14-.01zM36.75 27.23a3.7 3.7 0 00-.66-.38 4.64 4.64 0 10-8.74.07 4 4 0 00-.49.3A6.07 6.07 0 0025 30.69a13.12 13.12 0 00-.3 4.1c.17 1.63.74 2.68 1.7 3.1a17 17 0 005.23.6c.7 0 4.25 0 5.58-.59.86-.36 1.36-1.24 1.53-2.69.26-2.08-.23-6.67-1.99-7.98zm-5-.06a1.83 1.83 0 111.83-1.83 1.84 1.84 0 01-1.87 1.83zm2.59 2a2.38 2.38 0 01.77.3 10.13 10.13 0 01.89 5.16 4.1 4.1 0 01-.12.77c-1.56.37-7 .43-8.17 0a2.89 2.89 0 01-.21-.91c-.23-2.17.54-4.66 1-5a2.22 2.22 0 01.66-.29 4.74 4.74 0 005.14-.02zM43 18.71a17 17 0 005.23.6c.7 0 4.25 0 5.58-.59.86-.36 1.36-1.24 1.53-2.69.25-2.09-.21-6.68-2-8a3.73 3.73 0 00-.66-.38 4.64 4.64 0 10-8.74.07 4 4 0 00-.49.3 6.07 6.07 0 00-1.88 3.48 13.12 13.12 0 00-.3 4.1c.17 1.65.73 2.69 1.73 3.11zM48.3 8a1.83 1.83 0 111.83-1.83A1.84 1.84 0 0148.3 8zm2.59 2a2.38 2.38 0 01.77.3 10.13 10.13 0 01.89 5.15 4.18 4.18 0 01-.12.77c-1.56.37-7 .43-8.17 0a2.89 2.89 0 01-.21-.91c-.23-2.17.54-4.66 1-5a2.22 2.22 0 01.66-.29 4.74 4.74 0 005.18-.02zM36.75 8a3.73 3.73 0 00-.66-.38 4.64 4.64 0 10-8.74.07 4 4 0 00-.49.3A6.07 6.07 0 0025 11.51a13.12 13.12 0 00-.3 4.1c.17 1.64.74 2.68 1.7 3.1a17 17 0 005.23.6c.7 0 4.25 0 5.58-.59.86-.36 1.36-1.24 1.53-2.69.26-2.09-.23-6.68-1.99-8.03zm-5-.06a1.83 1.83 0 111.83-1.83A1.84 1.84 0 0131.71 8zm2.59 2a2.38 2.38 0 01.77.3 10.13 10.13 0 01.89 5.2 4.18 4.18 0 01-.12.77c-1.56.37-7 .43-8.17 0a2.89 2.89 0 01-.21-.91c-.23-2.17.54-4.66 1-5a2.22 2.22 0 01.66-.29A4.74 4.74 0 0034.3 10z"/></symbol><symbol id="lightning-viewer-icon" viewBox="0 0 30 30"><path d="M23.61 11.5H15V0L6.38 18.5H15V30l8.61-18.5z"/></symbol><symbol id="tasks-icon" viewBox="0 0 30 30"><path d="M28.27 1.68l.61.88a47.83 47.83 0 00-8.34 8.69 59.75 59.75 0 00-7 11l-1.3.88A22.08 22.08 0 0010 24.76a27.46 27.46 0 00-1-2.7l-.49-1.14a17.54 17.54 0 00-2-3.63 4.39 4.39 0 00-2-1.56q1.89-2 3.47-2 1.35 0 3 3.66l.54 1.23a50.9 50.9 0 017.61-9.71 42.6 42.6 0 019.14-7.23z"/><path d="M19.42 14.5a8.76 8.76 0 11-16.17 2.17h-.09l.13-.14a8.72 8.72 0 0112.83-5.35c.45-.5.91-1 1.39-1.49a10.74 10.74 0 103.19 3.13c-.44.54-.87 1.12-1.28 1.68z"/></symbol><symbol id="info-icon" viewBox="0 0 19 19"><path d="M9.5 0A9.5 9.5 0 1019 9.5 9.5 9.5 0 009.5 0zm2.12 16.69v-7l-5.57 2.49v.64l.52-.16a1.14 1.14 0 01.83 0 .78.78 0 01.44.49A6.29 6.29 0 018 14.79v2a7.51 7.51 0 113.68-.15z"/><circle cx="9.5" cy="6.59" r="2.12"/></symbol><symbol id="local-edit-icon" viewBox="0 0 30 30"><path d="M20.56 17.93l-8.49-8.49L21.51 0H0v30h30V8.49zM8.28 21.72L10 11.47 18.53 20z"/></symbol></defs></svg>