<svg xmlns="http://www.w3.org/2000/svg" width="0" height="0" style="display:none">
	<defs>
		<symbol id="home-icon" viewBox="0 0 80 40"><title>home</title><path d="M51,35H41.48V27h-3v8H29V21H22L40,3,58,21H51Zm-6.52-3H48V18h2.8L40,7.24,29.2,18H32l0,14h3.52V24h9Z"/>
		</symbol>
		<symbol id="shortcuts-icon" width="80" height="40" viewBox="0 0 80 40"><title>shortcuts2</title><rect x="42" y="8" width="26" height="2"/><rect x="42" y="16" width="26" height="2"/><rect x="42" y="24" width="26" height="2"/><polygon points="34.48 7.64 32.36 5.52 10 27.88 10 12 7 12 7 33 28 33 28 30 12.12 30 34.48 7.64"/><rect x="42" y="32" width="2" height="2"/><rect x="50" y="32" width="2" height="2"/><rect x="58" y="32" width="2" height="2"/><rect x="66" y="32" width="2" height="2"/>
		</symbol>
		<symbol id="logout-icon" viewBox="0 0 80 40"><title>logout</title><polygon points="13.32 19 13.32 22 44.94 22 33.71 33.23 35.83 35.35 50.68 20.5 35.83 5.65 33.71 7.77 44.94 19 13.32 19"/><polygon points="64 34 49 34 49 32 62 32 62 10 49 10 49 8 64 8 64 34"/>
		</symbol>
		<symbol id="hotlist-icon" viewBox="0 0 80 40"><title>hotlist</title><path d="M51.64,25.52c0-.46-.09-.87-.11-1.19-.2-2.6-1-8.32-4.3-9.37l-.07,0a8,8,0,0,0-1.71-1.64,6.1,6.1,0,1,0-11.28-2.13,1.5,1.5,0,0,0-.47.16C29.14,13.88,29.92,25.44,31,27.52c.57,1.08,3.62,5.94,12.1,5.94l.53,0a5.28,5.28,0,0,0,3.88,2l.52,0a3.64,3.64,0,0,0,3-1.29C52.23,32.69,52,29.37,51.64,25.52ZM40.19,7.15a3.09,3.09,0,1,1-3.09,3.09A3.09,3.09,0,0,1,40.19,7.15ZM43,22.41c0,.28,0,.53,0,.73,0,1.09,0,2.44,0,3.73s0,2.6,0,3.57c-6.7,0-9-3.53-9.39-4.32C32.9,24.54,32.85,15.65,35,14l.38,0a6.05,6.05,0,0,0,7.91,1.46c.22.13.47.3.6.4C42.73,17.31,42.79,19.88,43,22.41Zm5.7,9.95a.8.8,0,0,1-.62.14,3.34,3.34,0,0,1-1.81-.55,27.62,27.62,0,0,1-.2-5c0-1.34,0-2.72,0-3.89,0-.22,0-.5-.05-.81-.22-3,0-4.07.22-4.41.91.11,2,2.67,2.35,6.76,0,.34.07.77.12,1.26C48.79,27.22,49.21,31.51,48.67,32.36Z"/><polygon points="22.08 29.55 12.54 20 22.08 10.45 24.2 12.57 16.78 20 24.2 27.43 22.08 29.55"/><polygon points="59.39 10.45 68.94 20 59.39 29.55 57.27 27.43 64.7 20 57.27 12.57 59.39 10.45"/>
		</symbol>
		<symbol id='quicklook-icon' viewBox="0 0 30 30"><title>Quicklook</title><path d="M15,4.83c8.28,0,15,4.55,15,10.17A15,15,0,0,0,0,15C0,9.39,6.72,4.83,15,4.83Z"/><path d="M15,25.17C6.72,25.17,0,20.61,0,15a15,15,0,1,0,30,0C30,20.61,23.28,25.17,15,25.17Z"/><circle cx="15" cy="15" r="6"/>
		</symbol>
		<symbol id='warning-icon' viewBox="0 0 30 30"><title>Warning</title><path d="M15,8.6l7.86,13.9H7.14L15,8.6m0-6.1L2,25.5H28L15,2.5Z"/>
		</symbol>
		<symbol id="patient-icon" viewBox="0 0 60 60"><title>patient icon</title><path d="M52.41,41.55c-.09-.94-.17-1.77-.22-2.42-.38-5.09-2-16.56-8.36-17.71a13.68,13.68,0,0,0-4.65-4.09,10.79,10.79,0,1,0-18.92-3.61l-.65.1a4.58,4.58,0,0,0-2.18-.73h0c-6.57-.33-8.62,10.64-9.2,15.36-.07.57-.18,1.29-.29,2.11C7,36.82,6.35,42.64,8.09,45.1a5.54,5.54,0,0,0,4.73,2.08h.4a11.78,11.78,0,0,0,1.7-.24c2.64,3.4,8.9,9,21.58,9,.64,0,1.46,0,2.16-.07a4.22,4.22,0,0,0,.23.54c1.08,2,4.25,3.35,6.82,3.58q.47,0,.91,0a5.93,5.93,0,0,0,4.86-2C53.56,55.32,53.11,48.69,52.41,41.55ZM30.63,3.18a7.6,7.6,0,1,1-7.6,7.6A7.61,7.61,0,0,1,30.63,3.18ZM13.19,44l-.1,0a2.83,2.83,0,0,1-2.4-.73c-1.15-1.63-.07-9.06.39-12.23.12-.85.23-1.59.3-2.18.53-4.29,1.88-8.71,3.6-11C11,25.26,11.74,39.56,13.19,44ZM39.61,22.67c-2.27,2.44-2.11,7.47-1.76,12.41,0,.58.08,1.09.1,1.5.1,2.23.07,4.94,0,7.56,0,3.58,0,6.41.12,8.53-15.44.52-20.85-7.61-21.8-9.4-1.66-3.14-2.11-22.69,3.4-26.23a16.48,16.48,0,0,1,1.93-.29,10.75,10.75,0,0,0,15.14,2.87,13,13,0,0,1,3.51,2.45A4.34,4.34,0,0,0,39.61,22.67ZM49,56a3.4,3.4,0,0,1-3,.79c-2.14-.19-3.94-1.24-4.29-1.9-.62-1.17-.56-6.69-.53-10.72,0-2.66.05-5.42-.05-7.73,0-.43-.06-1-.1-1.59-.2-2.72-.6-8.38.91-10a1,1,0,0,1,.81-.34h0c3.54,0,5.69,7.47,6.25,14.87.05.67.13,1.53.23,2.49C49.6,45.54,50.44,54.14,49,56Z"/>
		</symbol>
		<symbol id='lightening-viewer-icon' viewBox="0 0 30 30"><title>lightening viewer</title><polygon points="23.61 11.5 15 11.5 15 0 6.38 18.5 15 18.5 15 30 23.61 11.5"/><rect width="30" height="1"/><rect y="4.14" width="30" height="1"/><rect y="24.86" width="30" height="1"/><rect y="16.57" width="30" height="1"/><rect y="8.29" width="30" height="1"/><rect y="12.43" width="30" height="1"/><rect y="20.71" width="30" height="1"/><rect y="29" width="30" height="1"/>/symbol>
	</defs>
</svg>