<svg xmlns="http://www.w3.org/2000/svg" viewBox="0 0 19 19"><style>*{fill:#003}</style><path d="m9.78 9.02-.51.51-.98-.99.5-.5.99.98zM10.84 7.96l-.5.5-.98-.98.5-.5.98.98zM11.9 6.9l-.5.5-.98-.98.5-.5.98.98zM12.96 5.83l-.5.51-.98-.98.5-.51.98.98zM14.03 4.77l-.5.5-.99-.98.51-.5.98.98z"/><path d="M15.12.29a.71.71 0 0 0 0 1l.9.9-1.16 1.16-1.58-1.58a.46.46 0 0 0-.65 0l-9.69 9.7a.45.45 0 0 0 0 .64l1.76 1.76L0 18.59l1 .29 4.36-4.36 1.74 1.76a.46.46 0 0 0 .65 0l9.69-9.7a.45.45 0 0 0 0-.64l-1.58-1.58L17 3.2l.9.9a.7.7 0 0 0 1 0 .71.71 0 0 0 0-1L16.12.29a.7.7 0 0 0-1 0zm-9.36 9.86a.25.25 0 0 1 0 .36l-1.3 1.3 1.06 1.07a.25.25 0 0 1 0 .36.24.24 0 0 1-.11.06l-1.5-1.51 1.71-1.71a.27.27 0 0 1 .14.07zm10.71-3.89-5.89 5.89-3.51-3.52L13 2.74z"/></svg>