<svg xmlns="http://www.w3.org/2000/svg" width="0" height="0"><defs><symbol id="openers-logo" viewBox="0 0 279 60.79"><path class="a" d="M18.01 20.89l9.5 9.54H0v-9.54h18.01z"/><path class="a" d="M14 13.58a16.3 16.3 0 110 24.16l-6.35 6.34a25.28 25.28 0 100-36.85zM54.65 60.79v-47H63l.41 2.53a13.8 13.8 0 012.48-1.78 12.17 12.17 0 013-1.23 11.65 11.65 0 012.9-.37 13 13 0 018.75 3 14.78 14.78 0 014.76 7.1 26.85 26.85 0 011.19 7.5 20.35 20.35 0 01-1.06 6.5 16.07 16.07 0 01-3.26 5.67 16.44 16.44 0 01-5.57 4 19.29 19.29 0 01-8 1.53 11.75 11.75 0 01-4.72-1v13.55zM68 40.75A9.12 9.12 0 0073.76 39a8.4 8.4 0 003-4.07 13.61 13.61 0 00.75-4.18 14.3 14.3 0 00-1.07-5.63 8 8 0 00-2.87-3.71 6.85 6.85 0 00-3.75-1.16 6.47 6.47 0 00-2.67.6 10.23 10.23 0 00-2.15 1.3 6.36 6.36 0 00-1.25 1.3V39.8a10.57 10.57 0 004.25.95zM106.55 48.34a18.86 18.86 0 01-6.33-1.06 14.56 14.56 0 01-5.3-3.28 15.51 15.51 0 01-3.62-5.53 21 21 0 01-1.3-7.8 18.92 18.92 0 012.71-10.4 14.19 14.19 0 016.49-5.77 19 19 0 017.14-1.5 16.17 16.17 0 016.41 1.23 13 13 0 015 3.73 17.88 17.88 0 013.25 6.18 30.13 30.13 0 011.19 8.72h-23a10.64 10.64 0 00.81 3.64 7.87 7.87 0 001.75 2.5 6.57 6.57 0 002.37 1.44 8.15 8.15 0 002.7.46 11.5 11.5 0 003.49-.48 7.15 7.15 0 002.7-1.59 18 18 0 002.29-2.61l6.81 4.13a18.29 18.29 0 01-4.76 5.08 14.49 14.49 0 01-5.42 2.36 27.11 27.11 0 01-5.38.55zm-7.22-21.71h13.51a7.62 7.62 0 00-1.37-4 6.25 6.25 0 00-2.6-2.17 6.67 6.67 0 00-2.53-.6 6.29 6.29 0 00-3.5 1.08 7.37 7.37 0 00-2.51 2.59 7.81 7.81 0 00-1 3.1zM127.41 47.56V13.81h8.34l.41 2.67a15.39 15.39 0 014.84-2.62 17.24 17.24 0 015.45-.9 13.41 13.41 0 017.4 1.91 10.21 10.21 0 014.15 5.35 22.46 22.46 0 011.19 7.37v20H150V28.31a9.29 9.29 0 00-1.69-6 5.71 5.71 0 00-4.7-2.1 7.28 7.28 0 00-2.86.58 13 13 0 00-2.48 1.37 13.87 13.87 0 00-1.74 1.43v23.97zM170.62 47.56V.85h27.25v4.83h-21.64v15h15.45v4.82h-15.52v17.24h23.38v4.82zM210 47.56V.85h15a22.25 22.25 0 016.79.93 13.12 13.12 0 014.77 2.58 10.16 10.16 0 012.8 4 14.11 14.11 0 01.92 5.23 14.34 14.34 0 01-.89 5.31 11.29 11.29 0 01-2.46 3.88 12.23 12.23 0 01-3.69 2.59 17.8 17.8 0 01-4.58 1.38l12.72 20.79H235l-12.66-20.43h-6.77v20.45zm5.6-25.27h9q4.78 0 7.26-2.2c1.66-1.47 2.48-3.63 2.48-6.48A7.3 7.3 0 00232 7.68c-1.6-1.34-3.89-2-6.87-2h-9.51zM263.65 48.55a21.46 21.46 0 01-7.13-1.18 18.58 18.58 0 01-5.59-2.94 15.69 15.69 0 01-3.39-3.61l4.46-3.28a11.81 11.81 0 002.36 2.53 14.32 14.32 0 003 1.83 16.57 16.57 0 003.22 1.1 15.65 15.65 0 003.44.39 11.52 11.52 0 005-1 6.38 6.38 0 003.1-2.93 9 9 0 00.94-4 6.69 6.69 0 00-1.59-4.5 13.93 13.93 0 00-4.4-3.28c-1.86-.95-3.77-1.81-5.71-2.58a58.24 58.24 0 01-4.37-2 18 18 0 01-4-2.62 12.34 12.34 0 01-2.86-3.6 10.37 10.37 0 01-1.05-4.88 10.46 10.46 0 012.55-7.15A12.4 12.4 0 01257.56 1a22.71 22.71 0 016.26-1 22 22 0 014.37.43 17.73 17.73 0 014.1 1.33A17.12 17.12 0 01275.92 4a15 15 0 012.94 3.25l-4.27 3.39a13.72 13.72 0 00-3.37-3.25 13.58 13.58 0 00-3.9-1.9A12.82 12.82 0 00264 5a10.63 10.63 0 00-4.73 1.1A7.6 7.6 0 00256 8.68a5.59 5.59 0 00-1 3 5.83 5.83 0 00.55 2.58 7 7 0 001.42 2 9.92 9.92 0 002 1.5 22.28 22.28 0 002.28 1.17c1.36.61 2.53 1.08 3.48 1.4a48.11 48.11 0 019.09 4.67 11.2 11.2 0 014.12 4.78 14.83 14.83 0 011.06 5.54 13.36 13.36 0 01-1.23 5.93 11.44 11.44 0 01-3.32 4.12 14.21 14.21 0 01-4.87 2.39 21.56 21.56 0 01-5.93.79z"/></symbol></defs></svg>