<?xml version="1.0" standalone="no"?>
<!DOCTYPE svg PUBLIC "-//W3C//DTD SVG 20010904//EN"
 "http://www.w3.org/TR/2001/REC-SVG-20010904/DTD/svg10.dtd">
<svg version="1.0" xmlns="http://www.w3.org/2000/svg"
 width="260.000000pt" height="260.000000pt" viewBox="0 0 260.000000 260.000000"
 preserveAspectRatio="xMidYMid meet">
<metadata>
Created by potrace 1.11, written by Peter Selinger 2001-2013
</metadata>
<g transform="translate(0.000000,260.000000) scale(0.100000,-0.100000)"
fill="#000000" stroke="none">
<path d="M1115 2439 c-210 -25 -458 -133 -603 -265 l-43 -39 143 -143 143
-142 55 41 c247 186 587 197 847 28 82 -54 191 -170 238 -254 21 -37 49 -101
63 -143 23 -69 26 -93 26 -222 0 -129 -3 -153 -26 -222 -69 -208 -231 -384
-424 -462 -240 -98 -518 -62 -724 93 l-55 41 -142 -142 c-118 -118 -140 -144
-130 -157 25 -31 166 -128 245 -170 172 -89 327 -125 532 -124 312 1 581 113
800 333 175 174 285 389 325 630 89 549 -237 1086 -770 1268 -142 48 -346 69
-500 51z"/>
<path d="M120 1300 l0 -220 620 0 c341 0 620 3 620 8 0 4 -96 103 -213 220
l-212 212 -408 0 -407 0 0 -220z"/>
</g>
</svg>
