<svg xmlns="http://www.w3.org/2000/svg" width="126" height="49" viewBox="0 0 126 49"><title>Face</title><style>circle{fill:#ccc;opacity:0.15;}path{fill:#ccc;opacity:0.15;}</style><path d="M1,17.1a15.88,15.88,0,0,1,2.53-.19,4.26,4.26,0,0,1,2.83.74,2.33,2.33,0,0,1,.79,1.84,2.45,2.45,0,0,1-1.66,2.3v0A2.34,2.34,0,0,1,6.78,23.6a18.33,18.33,0,0,0,.72,2.56H5.77A13,13,0,0,1,5.16,24c-.26-1.2-.69-1.58-1.65-1.61H2.66v3.77H1Zm1.66,4.06h1c1.13,0,1.84-.6,1.84-1.51s-.71-1.47-1.8-1.47a4.79,4.79,0,0,0-1,.08Z"/><path d="M10.61,17.67a.89.89,0,0,1-1,.9.88.88,0,0,1-.93-.9.94.94,0,0,1,1.88,0ZM8.82,26.16V19.53h1.69v6.64Z"/><path d="M18.32,25.2a3.85,3.85,0,0,1-1,3,3.82,3.82,0,0,1-2.56.8,4.7,4.7,0,0,1-2.32-.53l.37-1.27a4,4,0,0,0,1.93.5,1.76,1.76,0,0,0,1.91-2v-.57h0a2.24,2.24,0,0,1-1.93,1,2.94,2.94,0,0,1-2.82-3.24c0-2.18,1.42-3.5,3-3.5a2.09,2.09,0,0,1,1.92,1h0l.07-.89h1.46c0,.45-.05,1-.05,1.91Zm-1.68-3a1.65,1.65,0,0,0-.05-.45,1.39,1.39,0,0,0-1.36-1.08c-.94,0-1.63.82-1.63,2.17,0,1.13.57,2,1.62,2a1.43,1.43,0,0,0,1.36-1,2.87,2.87,0,0,0,.07-.6Z"/><path d="M20.13,16.49h1.69v4h0a2.24,2.24,0,0,1,.83-.76,2.27,2.27,0,0,1,1.14-.3c1.13,0,2.32.75,2.32,2.88v3.91H24.46V22.44c0-1-.35-1.69-1.28-1.69a1.37,1.37,0,0,0-1.29.94,1.4,1.4,0,0,0-.07.5v4H20.13Z"/><path d="M29.78,17.82v1.7h1.59v1.25H29.78v2.93c0,.8.22,1.23.86,1.23a2.07,2.07,0,0,0,.65-.08l0,1.28a3.61,3.61,0,0,1-1.21.18,2,2,0,0,1-1.44-.56,2.65,2.65,0,0,1-.52-1.85V20.78h-1V19.53h1V18.3Z"/><path d="M96.42,17H98.1v7.78h3.77v1.4H96.42Z"/><path d="M104.11,23.31a1.8,1.8,0,0,0,2,1.72,5,5,0,0,0,1.84-.3l.25,1.16a6.23,6.23,0,0,1-2.32.42,3.15,3.15,0,0,1-3.42-3.37,3.29,3.29,0,0,1,3.24-3.57c2.17,0,2.86,1.77,2.86,3.23a4.06,4.06,0,0,1-.05.71ZM107,22.14a1.43,1.43,0,0,0-1.38-1.62,1.64,1.64,0,0,0-1.54,1.62Z"/><path d="M110.15,26.16V20.78h-.9V19.53h.9v-.29A3.1,3.1,0,0,1,111,17a2.54,2.54,0,0,1,1.73-.64,3.25,3.25,0,0,1,1.08.16l-.12,1.29a2,2,0,0,0-.71-.12c-.83,0-1.12.69-1.12,1.51v.34h1.46v1.25h-1.44v5.38Z"/><path d="M116.41,17.82v1.7H118v1.25h-1.59v2.93c0,.8.22,1.23.86,1.23a2.07,2.07,0,0,0,.65-.08l0,1.28a3.61,3.61,0,0,1-1.21.18,2,2,0,0,1-1.44-.56,2.65,2.65,0,0,1-.52-1.85V20.78h-1V19.53h1V18.3Z"/><circle cx="70.75" cy="22.75" r="3.75"/><circle cx="55" cy="22.75" r="3.75"/><path d="M63,5.47A19.5,19.5,0,1,1,43.5,25,19.52,19.52,0,0,1,63,5.47m0-5A24.5,24.5,0,1,0,87.5,25,24.5,24.5,0,0,0,63,.47Z"/></svg>