<svg xmlns="http://www.w3.org/2000/svg" width="30" height="30" viewBox="0 0 30 30"><title>lightening-view</title><polygon points="21.95 17.33 21.02 19.33 27 19.33 27 17.33 21.95 17.33"/><polygon points="5.87 17.33 3 17.33 3 19.33 4.94 19.33 5.87 17.33"/><polygon points="8.98 10.67 3 10.67 3 12.67 8.05 12.67 8.98 10.67"/><polygon points="25.06 10.67 24.13 12.67 27 12.67 27 10.67 25.06 10.67"/><polygon points="12.08 4 3 4 3 6 11.15 6 12.08 4"/><rect x="17" y="4" width="10" height="2"/><polygon points="22.2 12.08 15 12.08 15 2.47 7.8 17.92 15 17.92 15 27.53 22.2 12.08"/><polygon points="18.85 24 17.92 26 27 26 27 24 18.85 24"/><rect x="3" y="24" width="10" height="2"/></svg>