<svg xmlns="http://www.w3.org/2000/svg" xmlns:xlink="http://www.w3.org/1999/xlink" viewBox="0 0 19 19"><defs><style>.a{fill:url(#a);}.b{fill:#fff;opacity:0;}</style><linearGradient id="a" y1="9.5" x2="19" y2="9.5" gradientUnits="userSpaceOnUse"><stop offset="0.3" stop-color="#090"/><stop offset="0.7" stop-color="#a00"/></linearGradient></defs><title>lat-B</title><circle class="a" cx="9.5" cy="9.5" r="9.5"/><path class="b" d="M4.73,3.77H9.87a4.14,4.14,0,0,1,3,1,2.56,2.56,0,0,1,.77,1.9v0A2.73,2.73,0,0,1,12,9.27a2.81,2.81,0,0,1,2.27,2.78v0c0,2-1.69,3.14-4.24,3.14H4.73ZM9.46,8.6c1.29,0,2.16-.51,2.16-1.55V7c0-.9-.72-1.46-2-1.46H6.71v3ZM10,13.44c1.37,0,2.21-.54,2.21-1.57v0c0-1-.77-1.54-2.36-1.54H6.71v3.14Z"/></svg>