<svg xmlns="http://www.w3.org/2000/svg" viewBox="0 0 19 19"><title>Person split</title><style>*{fill:#003;}</style><path d="M7.65,8.09a3.31,3.31,0,1,1,0-6.61Z"/><path d="M7.65,17.58H4.8c-1.58,0-2.86-.78-2.86-2.36V11.93A2.7,2.7,0,0,1,4.8,9.27H7.65Z"/><path d="M11.35,8.09a3.31,3.31,0,1,0,0-6.61Z"/><path d="M11.35,17.58H14.2c1.58,0,2.86-.78,2.86-2.36V11.93A2.7,2.7,0,0,0,14.2,9.27H11.35Z"/><rect x="7.65" y="1.48" width="1" height="1"/><rect x="7.65" y="16.58" width="1" height="1"/><rect x="10.35" y="16.58" width="1" height="1"/><rect x="10.35" y="1.48" width="1" height="1"/></svg>