<svg xmlns="http://www.w3.org/2000/svg" viewBox="0 0 19 19"><style>circle{fill:rgb(14,154,51);}.b{fill:rgb(255,255,255);}</style><circle class="a" cx="9.5" cy="9.5" r="9.5"/><path class="b" d="M19.42-.32l-.23.14A28.81,28.81,0,0,0,13.06,4.7a35.35,35.35,0,0,0-4.83,6.06l-.13-.31C7.29,8.66,6.57,7.83,5.83,7.83A3.7,3.7,0,0,0,3.3,9.26L3,9.59l.43.15a2.57,2.57,0,0,1,1.21.94A11.27,11.27,0,0,1,5.9,13l.32.75q.51,1.25.66,1.77L7,16l.35-.33a14.26,14.26,0,0,1,1.43-1.08L9.72,14l0-.08A39.85,39.85,0,0,1,14.4,6.64,32.08,32.08,0,0,1,19.92.89l.23-.17Z"/></svg>