<svg xmlns="http://www.w3.org/2000/svg" viewBox="0 0 19 19"><title>letter-2</title><style>*{fill:#fff;}</style><path d="M6.71,3.31a6,6,0,0,1,4.22-1.5,6.76,6.76,0,0,1,1.94.27,4.57,4.57,0,0,1,1.59.83,3.92,3.92,0,0,1,1.09,1.42,4.78,4.78,0,0,1,.4,2,4.06,4.06,0,0,1-.47,2A6.14,6.14,0,0,1,14.25,9.9a10.56,10.56,0,0,1-1.71,1.28l-1.91,1.13q-.95.55-1.81,1.09a7.09,7.09,0,0,0-1.44,1.16h7.43l-.6,2.63H3.05a6,6,0,0,1,.62-2.43,6.72,6.72,0,0,1,1.38-1.82,10.81,10.81,0,0,1,1.89-1.41Q8,10.9,9.1,10.32q.56-.32,1.22-.67a8.27,8.27,0,0,0,1.23-.79,4.51,4.51,0,0,0,1-1,2.25,2.25,0,0,0,.39-1.31,1.86,1.86,0,0,0-.68-1.63,2.76,2.76,0,0,0-1.65-.48,2.54,2.54,0,0,0-1.13.25,2.57,2.57,0,0,0-.86.68,3.35,3.35,0,0,0-.56,1,3.79,3.79,0,0,0-.23,1.18H4.88A6.18,6.18,0,0,1,6.71,3.31Z"/></svg>