<svg xmlns="http://www.w3.org/2000/svg" viewBox="0 0 19 19"><style>*{fill:#fff}</style><path d="M6.36 6.48l-2.5 8.67a4.79 4.79 0 00-.21 1 .36.36 0 00.11.25.32.32 0 00.23.12.63.63 0 00.41-.18 7.46 7.46 0 001.32-1.63l.41.24q-1.83 3.17-3.9 3.17A1.76 1.76 0 011 17.68a1.49 1.49 0 01-.5-1.13 4.18 4.18 0 01.21-1.15L2.4 9.58a5 5 0 00.24-1.27.62.62 0 00-.23-.48.92.92 0 00-.63-.21h-.44l.16-.49 4.13-.67zM5.61.88a1.72 1.72 0 011.27.52 1.74 1.74 0 01.52 1.27 1.73 1.73 0 01-.52 1.27 1.78 1.78 0 01-2.52 0 1.73 1.73 0 01-.52-1.27 1.74 1.74 0 01.51-1.27A1.71 1.71 0 015.61.88zM12.6 6.48l-1.51 5.23a30.89 30.89 0 012.28-3.13 8.09 8.09 0 011.91-1.66 3.18 3.18 0 011.51-.44 1.45 1.45 0 011.09.52 1.69 1.69 0 01.45 1.22A5.94 5.94 0 0118 9.84L16.48 15a4.33 4.33 0 00-.19.89.31.31 0 00.09.22.26.26 0 00.19.1.44.44 0 00.26-.1 4.78 4.78 0 00.87-1l.35-.51.46.28q-1.79 3-3.77 3a1.69 1.69 0 01-1.18-.39 1.27 1.27 0 01-.43-1 6.07 6.07 0 01.29-1.49l1.52-5.2a2.88 2.88 0 00.16-.76.32.32 0 00-.1-.2.36.36 0 00-.26-.1 1.82 1.82 0 00-1.12.63 17.14 17.14 0 00-3.25 4.79l-1 3.62H6.25L8.53 10a7 7 0 00.33-1.65.59.59 0 00-.1-.35.63.63 0 00-.32-.22 2.85 2.85 0 00-.83-.08l.13-.46 4.11-.72z"/></svg>