<svg xmlns="http://www.w3.org/2000/svg" viewBox="0 0 19 19"><style>*{fill:#fff}</style><path d="M2.3 5.16a1.63 1.63 0 01.42-.31 1.13 1.13 0 01.56-.13c.9 0 1.35.43 1.35 1.28A1.58 1.58 0 014 7.29a2.23 2.23 0 01-1.5.52 2.52 2.52 0 01-1.88-.73 2.59 2.59 0 01-.72-1.9 4 4 0 011.71-3.27A6.93 6.93 0 015.89.65 6.49 6.49 0 0110 1.87a3.85 3.85 0 011.65 3.24 4.09 4.09 0 01-2.52 3.82l-.46.2-.59.26a4.93 4.93 0 00-1.59.92 1.65 1.65 0 00-.42 1.18 2.16 2.16 0 01-.16 1 .68.68 0 01-.39.39 1.75 1.75 0 01-.64.11C4 13 3.6 12.47 3.6 11.51a3.28 3.28 0 01.6-2 8.16 8.16 0 012.53-1.93 7.69 7.69 0 001.92-1.33A1.73 1.73 0 009 5a2 2 0 00-.88-1.73 3.84 3.84 0 00-2.34-.64 4.28 4.28 0 00-2.56.75A1.93 1.93 0 002.3 5zm2.79 12.69a2 2 0 01-1.4-.54 1.88 1.88 0 010-2.7 2 2 0 011.4-.55 1.87 1.87 0 011.38.55 1.88 1.88 0 010 2.7 1.9 1.9 0 01-1.38.54zM18.87 12.25A3 3 0 0116 14.49h-3.11l1.85 1.84-1.32 1.32-4.15-4.16 4.15-4.16 1.32 1.32-2 2H16a1.17 1.17 0 001.17-1.17V9.36a5.35 5.35 0 101.87 4 5.48 5.48 0 00-.17-1.11z"/></svg>