<svg xmlns="http://www.w3.org/2000/svg" viewBox="0 0 19 19"><style>*{fill:#00f}</style><path d="M9.14 8.77a9.73 9.73 0 00-.55-2.69 10 10 0 01-.67-2.65 2.23 2.23 0 01.48-1.54 1.54 1.54 0 011.19-.53 1.36 1.36 0 011.06.53 2.26 2.26 0 01.45 1.51 8.51 8.51 0 01-.52 2.46 13.06 13.06 0 00-.64 2.91 9 9 0 001.94-1.67 9.86 9.86 0 012-1.92 2.61 2.61 0 011.31-.37 1.48 1.48 0 011.09.44 1.43 1.43 0 01.44 1 1.69 1.69 0 01-.65 1.29 8.58 8.58 0 01-3.24 1.14 14.13 14.13 0 00-2.51.76 9 9 0 002.49.8 7 7 0 013.11 1.08 1.87 1.87 0 01.74 1.41 1.38 1.38 0 01-.44 1 1.43 1.43 0 01-1 .43 2.66 2.66 0 01-1.3-.41A8.77 8.77 0 0111.94 12a10.39 10.39 0 00-2-1.8 9.27 9.27 0 00.45 2.43 13.42 13.42 0 01.71 3.16 1.94 1.94 0 01-.47 1.32 1.34 1.34 0 01-1 .54 1.85 1.85 0 01-1.31-.57 1.8 1.8 0 01-.41-1.31 7.23 7.23 0 01.45-2.27q.45-1.32.57-1.82a12.32 12.32 0 00.22-1.48 10.8 10.8 0 00-2 1.71 11.37 11.37 0 01-2.16 2 2 2 0 01-1.06.31 1.58 1.58 0 01-1.14-.45 1.36 1.36 0 01-.47-1 1.75 1.75 0 01.4-1 2.93 2.93 0 011.21-.89 15.27 15.27 0 012.41-.63 12.81 12.81 0 002.35-.75 10.08 10.08 0 00-2.53-.82 10 10 0 01-3-.92 1.9 1.9 0 01-.88-1.57 1.35 1.35 0 01.44-1 1.41 1.41 0 011-.44 2.8 2.8 0 011.37.41 7.82 7.82 0 011.8 1.66 9.62 9.62 0 002.25 1.95z"/></svg>