<svg xmlns="http://www.w3.org/2000/svg" viewBox="0 0 19 19"><style>*{fill:#003}</style><path d="M10.54 2.06v2.11l1.08.47a4 4 0 01.51.25 3.46 3.46 0 01.47.31l1 .7 1-.6.8-.46 1.07 1.84-.8.47-1 .59.14 1.17a5.43 5.43 0 010 1.14l-.12 1.17 1 .58.81.47-1.06 1.85-.81-.46-1-.59-.94.7a5.46 5.46 0 01-1 .58l-1.07.48v2.1H8.46v-2.1l-1.08-.47a4 4 0 01-.51-.25 3.46 3.46 0 01-.47-.31l-1-.7-1 .6-.8.46-1.06-1.84.8-.47 1-.59-.12-1.16a5.53 5.53 0 010-1.1l.12-1.17-1-.58-.81-.47 1.05-1.9.81.46 1 .59.94-.7a4.93 4.93 0 011-.58l1.07-.48v-2.1h2.14M11.59.26H7.34a.73.73 0 00-.52.22.75.75 0 00-.22.52v2a6.31 6.31 0 00-1.33.77l-1.72-1a.86.86 0 00-.37-.1.76.76 0 00-.65.38l-2.1 3.7a.76.76 0 00-.07.57.72.72 0 00.35.45l1.72 1a7.21 7.21 0 000 1.54l-1.72 1a.77.77 0 00-.35.46.73.73 0 00.08.56L2.59 16a.75.75 0 001 .27l1.71-1a5.12 5.12 0 00.65.42 7.43 7.43 0 00.69.35v2a.75.75 0 00.75.74h4.25a.73.73 0 00.52-.22.75.75 0 00.24-.56v-2a6.31 6.31 0 001.33-.77l1.73 1a.78.78 0 00.37.09.62.62 0 00.19 0 .75.75 0 00.45-.35l2.11-3.68a.74.74 0 00.1-.37.76.76 0 00-.38-.65l-1.72-1a7.21 7.21 0 000-1.54l1.72-1a.77.77 0 00.35-.46.73.73 0 00-.08-.56L16.41 3a.75.75 0 00-.41-.33h-.19a.75.75 0 00-.38.1l-1.71 1a5.12 5.12 0 00-.72-.44 7.43 7.43 0 00-.66-.33V1a.75.75 0 00-.22-.53.74.74 0 00-.53-.21z"/><circle cx="9.5" cy="9.5" r="3.17"/></svg>