<svg xmlns="http://www.w3.org/2000/svg" viewBox="0 0 19 19"><style>*{fill:#003}</style><path d="M17.35 4.17A8.42 8.42 0 0014 1.42a10.25 10.25 0 00-4.51-1 10.25 10.25 0 00-4.49 1 8.42 8.42 0 00-3.3 2.75A6.64 6.64 0 00.5 8a6.55 6.55 0 00.93 3.38 8 8 0 002.22 2.41c0 .16-.09.31-.15.46s-.17.46-.25.63a3.88 3.88 0 01-.27.5c-.12.19-.21.32-.27.4l-.33.42-.28.37-.1.13-.07.09-.08.21a.74.74 0 00-.11.33.74.74 0 000 .4 1.08 1.08 0 00.28.54.85.85 0 00.62.27h.12a6.89 6.89 0 001.17-.27 10.52 10.52 0 004.41-2.64 11.7 11.7 0 001.2.06 10.25 10.25 0 004.51-1 8.43 8.43 0 003.3-2.75 6.66 6.66 0 000-7.72zm-7.81 9.06a8.94 8.94 0 01-1.17-.08s-2.54 2.65-4 3a11.7 11.7 0 001.5-3.73l-.73-.49a5.75 5.75 0 01-1.77-1.8 4 4 0 01.24-4.63 6.43 6.43 0 012.5-1.93 8.19 8.19 0 013.43-.73 8.19 8.19 0 013.46.73 6.43 6.43 0 012.5 1.93 4 4 0 010 5.07A6.43 6.43 0 0113 12.5a8.19 8.19 0 01-3.46.73z"/></svg>