<svg xmlns="http://www.w3.org/2000/svg" viewBox="0 0 19 19"><style>*{fill:#003}</style><path d="M17.35 4.17a8.43 8.43 0 00-3.3-2.75 10.17 10.17 0 00-4.51-1 10.2 10.2 0 00-4.54 1 8.43 8.43 0 00-3.3 2.75A6.73 6.73 0 00.5 8a6.52 6.52 0 00.93 3.38 8 8 0 002.22 2.41 3.53 3.53 0 01-.15.46q-.13.38-.24.63a5.66 5.66 0 01-.28.5 4.06 4.06 0 01-.26.4l-.33.42-.28.37-.11.16-.06.1-.09.17a.91.91 0 00-.11.32.76.76 0 000 .4 1.08 1.08 0 00.28.54.84.84 0 00.62.27h.12a6.79 6.79 0 001.17-.26 10.45 10.45 0 004.41-2.64c.41 0 .82.06 1.2.06a10.17 10.17 0 004.51-1 8.43 8.43 0 003.3-2.75 6.69 6.69 0 000-7.73zm-7.81 9.06a9.86 9.86 0 01-1.17-.08s-2.54 2.64-4 3a11.48 11.48 0 001.5-3.74L5.1 12a5.82 5.82 0 01-1.77-1.8A4 4 0 012.72 8a4.07 4.07 0 01.89-2.5 6.46 6.46 0 012.5-1.93 8.09 8.09 0 013.43-.73 8.09 8.09 0 013.46.73 6.46 6.46 0 012.5 1.93 4.06 4.06 0 010 5.07A6.46 6.46 0 0113 12.5a8.25 8.25 0 01-3.46.73z"/><circle cx="9.6" cy="6.49" r="2.12"/><path d="M10.9 9.33H8.3a1.73 1.73 0 00-1.72 1.73v1a11.24 11.24 0 006-.13v-.92a1.73 1.73 0 00-1.68-1.68z"/></svg>