<svg xmlns="http://www.w3.org/2000/svg" viewBox="0 0 19 19"><style>*{fill:#003}</style><path d="M13.83 14.18a.93.93 0 01-1-.83 3.08 3.08 0 00-3.33-2.74 3.08 3.08 0 00-3.33 2.74.93.93 0 01-1 .83.92.92 0 01-1-.83C4.17 10.93 6.56 9 9.5 9s5.33 2 5.33 4.38a.92.92 0 01-1 .8z"/><path d="M9.5 2A7.5 7.5 0 0117 9.5c0 2.17 0 4.64-1.37 6.17-1.1 1.23-3 1.33-5.4 1.33H8.77c-2.39 0-4.3-.1-5.4-1.33C2 14.14 2 11.67 2 9.5A7.5 7.5 0 019.5 2m0-2A9.5 9.5 0 000 9.5C0 12 0 14.9 1.87 17c1.72 1.92 4.33 2 6.9 2h1.46c2.57 0 5.18-.08 6.9-2C19 14.9 19 12 19 9.5A9.5 9.5 0 009.5 0z"/><path d="M3.41 9.56a1.54 1.54 0 01-.58-1.09 1.45 1.45 0 01.36-1.08 2.57 2.57 0 011.43-.72 4.41 4.41 0 001-.37l.67-.3-.17.68A5.28 5.28 0 006 7.73a2.6 2.6 0 01-.42 1.59 1.45 1.45 0 01-1 .58 1.57 1.57 0 01-1.17-.34zm2-2.46c-.22.08-.43.13-.62.18a1.93 1.93 0 00-1.12.53.8.8 0 00-.2.61.93.93 0 00.34.65.92.92 0 00.71.2.8.8 0 00.55-.27 2 2 0 00.29-1.24c.01-.24.02-.44.04-.66z"/><path d="M5.44 6.85a.73.73 0 01-.64-.36.76.76 0 01.25-1 3.48 3.48 0 013-.33.76.76 0 01.47 1 .74.74 0 01-1 .46 2 2 0 00-1.77.2.78.78 0 01-.31.03zM13.56 6.85a.78.78 0 01-.39-.1 2 2 0 00-1.77-.2.74.74 0 01-1-.46.76.76 0 01.47-1 3.52 3.52 0 013 .33.75.75 0 01.25 1 .73.73 0 01-.56.43z"/></svg>