<svg xmlns="http://www.w3.org/2000/svg" viewBox="0 0 19 19"><circle cx="9.5" cy="9.5" r="9.5" fill="#ff4d00"/><path class="a" d="M6.54 6a1.83 1.83 0 01.36-.26 1.06 1.06 0 01.48-.11c.76 0 1.15.37 1.15 1.09A1.36 1.36 0 018 7.83a2 2 0 01-1.28.44 2.19 2.19 0 01-1.61-.62A2.22 2.22 0 014.5 6 3.45 3.45 0 016 3.25a5.91 5.91 0 013.6-1.07 5.52 5.52 0 013.5 1A3.3 3.3 0 0114.5 6a3.47 3.47 0 01-2.14 3.24L12 9.4l-.5.21a4.27 4.27 0 00-1.35.79 1.39 1.39 0 00-.36 1 1.91 1.91 0 01-.13.82.59.59 0 01-.33.33 1.35 1.35 0 01-.55.1c-.73 0-1.09-.41-1.09-1.23a2.8 2.8 0 01.51-1.69 6.82 6.82 0 012.16-1.65A7 7 0 0012 7a1.5 1.5 0 00.33-1 1.72 1.72 0 00-.75-1.48 3.26 3.26 0 00-2-.55 3.63 3.63 0 00-2.18.65A1.64 1.64 0 006.58 6zm2.38 10.82a1.66 1.66 0 01-1.19-.46 1.59 1.59 0 010-2.3 1.67 1.67 0 011.19-.47 1.65 1.65 0 011.18.47 1.62 1.62 0 010 2.3 1.64 1.64 0 01-1.18.46z" fill="#fff"/></svg>