<svg xmlns="http://www.w3.org/2000/svg" viewBox="0 0 19 19"><style>*{fill:#003}</style><path d="M0 0v19h19V0zm14.1 8.54a5.37 5.37 0 01-1 1.29 9 9 0 01-1.4 1.05l-1.56.92c-.52.3-1 .6-1.49.89a5.8 5.8 0 00-1.18 1h6.09l-.5 2.15H3.92a4.76 4.76 0 01.51-2 5.49 5.49 0 011.13-1.49 8.66 8.66 0 011.55-1.15c.58-.34 1.16-.67 1.76-1l1-.55a6.62 6.62 0 001-.64 3.56 3.56 0 00.78-.82A1.88 1.88 0 0012 7.08a1.53 1.53 0 00-.56-1.33 2.29 2.29 0 00-1.35-.4 2 2 0 00-.92.21 2.12 2.12 0 00-.71.55 2.93 2.93 0 00-.46.81 3.14 3.14 0 00-.18 1h-2.4a5 5 0 011.5-3.46 4.86 4.86 0 013.45-1.26 5.76 5.76 0 011.63.22 4 4 0 011.31.68 3.37 3.37 0 01.89 1.17 4 4 0 01.32 1.65 3.46 3.46 0 01-.42 1.62z"/></svg>