<svg xmlns="http://www.w3.org/2000/svg" viewBox="0 0 19 19"><style>*{fill:#003}</style><path d="M9 3.47h1v1H9zM9 5.33h1v1H9zM9 7.2h1v1H9zM9 9.06h1v1H9zM9 10.93h1v1H9zM9 12.8h1v1H9zM9 14.66h1v1H9zM7.45 8.06a3.31 3.31 0 110-6.61zM7.45 17.55H4.8c-1.58 0-2.86-.78-2.86-2.36V11.9A2.7 2.7 0 014.8 9.24h2.65zM11.55 8.06a3.31 3.31 0 100-6.61zM11.55 17.55h2.55c1.58 0 2.86-.78 2.86-2.36V11.9a2.7 2.7 0 00-2.86-2.66h-2.55z"/><path d="M7.45 1.45h1v1h-1zM7.45 16.55h1v1h-1zM10.55 16.55h1v1h-1zM10.55 1.45h1v1h-1z"/></svg>