<svg xmlns="http://www.w3.org/2000/svg" width="0" height="0">
	<defs>
		<symbol id="freedraw" viewBox="0 0 19 19"><title>Freedraw</title><path d="M15.12,2.76l1.12,1.12L11.59,8.53,10.47,7.41l4.65-4.65m0-2.76L7.71,7.41l3.88,3.88L19,3.88,15.12,0Z"/><polygon points="7.16 7.96 6.31 12.69 11.04 11.84 7.16 7.96 7.16 7.96"/><path d="M4.25,18.35a4.68,4.68,0,0,1-3-.82A2.4,2.4,0,0,1,.4,15.61a2.91,2.91,0,0,1,1.08-2.26,4.13,4.13,0,0,1,2.88-.76c.75.12,1.06.32,1.11.75S4.91,14,4.33,14,2,14.51,2.17,15.56c.19,1.41,2.07,1,4,.64a9,9,0,0,0,2.46-1.07,8.23,8.23,0,0,1,4.58-1.42,5.15,5.15,0,0,1,4.33,2.42,1,1,0,1,1-1.74.9,3.25,3.25,0,0,0-2.71-1.37,6.5,6.5,0,0,0-3.51,1.18,10.77,10.77,0,0,1-3,1.28A13.18,13.18,0,0,1,4.25,18.35Z"/>
		</symbol>
		<symbol id="circle" viewBox="0 0 19 19"><title>circle</title><path d="M9.5,2A7.5,7.5,0,1,1,2,9.5,7.5,7.5,0,0,1,9.5,2m0-2A9.5,9.5,0,1,0,19,9.5,9.5,9.5,0,0,0,9.5,0Z"/>
		</symbol>
		<symbol id="pointer" viewBox="0 0 19 19"><title>pointer</title><polygon points="14.84 2.45 6.06 11.23 3.89 9.06 2.45 16.55 9.94 15.11 7.77 12.94 16.55 4.16 14.84 2.45"/>
		</symbol>
	</defs>
</svg>