<svg xmlns="http://www.w3.org/2000/svg" width="0" height="0">
	<defs>
		<symbol id="openeyes-logo" viewBox="0 0 321.98 59.73"><title>OpenERS</title><path class="a" d="M56.08,13.91h8v5.8c2.57-3.62,6.19-6.52,11.79-6.52,8.23,0,16.19,6.52,16.19,18v.13c0,11.53-7.9,18-16.19,18a14.17,14.17,0,0,1-11.79-6.12V59.22h-8ZM83.94,31.36v-.13c0-6.72-4.55-11.13-10-11.13S63.85,24.58,63.85,31.23v.13c0,6.72,4.74,11.13,10.14,11.13S83.94,38.21,83.94,31.36Z"/><path class="a" d="M95.65,31.43V31.3c0-9.95,7-18.11,17-18.11,11.06,0,16.66,8.69,16.66,18.7,0,.72-.07,1.45-.13,2.24H103.62c.85,5.66,4.87,8.82,10,8.82,3.88,0,6.65-1.45,9.42-4.15L127.72,43a17.59,17.59,0,0,1-14.22,6.52C103.42,49.47,95.65,42.16,95.65,31.43Zm25.75-2.57c-.53-5.14-3.56-9.15-8.83-9.15-4.87,0-8.29,3.75-9,9.15Z"/><path class="a" d="M134.7,13.91h8v5.4c2.24-3.29,5.47-6.12,10.87-6.12,7.83,0,12.38,5.27,12.38,13.36V48.68h-8V28.93c0-5.4-2.7-8.5-7.44-8.5s-7.84,3.23-7.84,8.63V48.68h-8Z"/><polygon class="a" points="185.69 28.28 212.09 28.28 212.09 22.59 185.69 22.59 185.69 7.02 215.06 7.02 215.06 1.32 179.73 1.32 179.73 49.95 215.38 49.95 215.38 44.25 185.69 44.25 185.69 28.28"/><path class="a" d="M265.2,15.82v-.13a13.48,13.48,0,0,0-3.86-9.46c-3.17-3.17-8.1-4.91-13.87-4.91H226.84V50h6V30.85H246L260.67,50h7.56L252.71,29.87C260.56,28.13,265.2,23,265.2,15.82ZM232.8,7h14.47c7.49,0,12,3.29,12,8.8V16c0,5.63-4.78,9.27-12.17,9.27H232.8Z"/><path class="a" d="M294.3,22.68c-11.5-2.36-12.42-5.27-12.42-8.83v-.13c0-4.31,4.2-7.43,10-7.43a18.6,18.6,0,0,1,12.93,4.89l1,.86,3.79-4.71-1-.79A24.27,24.27,0,0,0,292,.66c-9.17,0-16.09,5.75-16.09,13.38v.14c0,7.71,4.8,11.83,16.56,14.21,11.14,2.24,12,5.09,12,8.57v.13c0,4.64-4.27,7.89-10.39,7.89s-10.58-1.83-15.66-6.52l-1-.88-3.92,4.49.93.84c6,5.32,11.95,7.7,19.41,7.7,9.75,0,16.55-5.7,16.55-13.85v-.13C310.46,29.16,305.63,25,294.3,22.68Z"/><polygon class="a" points="18.83 21.08 27.9 30.19 1.63 30.19 1.63 21.08 18.83 21.08"/><path class="a" d="M15,14.1a15.57,15.57,0,1,1,0,23.06L8.94,43.22A24.13,24.13,0,1,0,8.94,8Z"/>
		</symbol>
		<symbol id="openeyes-logo-hide" viewBox="0 0 321.98 59.73"><title>OpenEyes</title><path d="M101.46,10.19c-10.88,0-17.93,8.26-17.93,19.3,0,10.5,6.4,18.75,17.33,18.75,10.77,0,18.1-7.33,18.1-19.41C119,18.67,112.78,10.19,101.46,10.19Zm-.16,31.44c-5.58,0-9-5.08-9-12.3s3.28-12.52,8.91-12.52,8.91,5.69,8.91,12.3C110.15,36.27,106.93,41.63,101.3,41.63Z"/><path d="M140.77,20.31a10.26,10.26,0,0,0-8.91,4.32h-.11l-.38-3.72h-7.22c.11,2.46.22,5.47.22,9V58.47h8.31V45.18h.11c1.2,1.75,3.72,3.06,6.94,3.06,6,0,12.14-4.59,12.14-14.32C151.86,25.39,146.62,20.31,140.77,20.31ZM137.7,41.85a5,5,0,0,1-4.87-3.94,8.28,8.28,0,0,1-.16-1.75V32.5a6.42,6.42,0,0,1,.16-1.48,5.22,5.22,0,0,1,5-4.21c3.72,0,5.63,3.23,5.63,7.49C143.44,38.84,141.31,41.85,137.7,41.85Z"/><path d="M169.19,20.31c-9.29,0-13.5,7.49-13.5,14.27,0,8.37,5.19,13.67,14.27,13.67a26.36,26.36,0,0,0,9.68-1.69l-1.09-5.63A23.55,23.55,0,0,1,171.16,42c-3.88,0-7.27-1.64-7.54-5.08h17.22a19.74,19.74,0,0,0,.27-3.28C181.11,27,177.83,20.31,169.19,20.31Zm-5.63,10.93c.22-2.24,1.64-5.41,5.14-5.41,3.83,0,4.7,3.39,4.7,5.41Z"/><path d="M201.88,20.31a9.79,9.79,0,0,0-8.26,4.26h-.16l-.38-3.66h-7.22c.11,2.35.22,5.19.22,8.53V47.64h8.31V32.23a5.92,5.92,0,0,1,.33-2.08A4.43,4.43,0,0,1,198.93,27c3,0,4.21,2.35,4.21,5.79V47.64h8.31V31.79C211.45,23.92,207.35,20.31,201.88,20.31Z"/><polygon points="227.85 32.06 241.41 32.06 241.41 25.28 227.85 25.28 227.85 17.63 242.22 17.63 242.22 10.79 219.48 10.79 219.48 47.64 242.99 47.64 242.99 40.81 227.85 40.81 227.85 32.06"/><path d="M260.65,34c-.38,1.53-.82,3.55-1.2,5h-.16c-.33-1.42-.87-3.39-1.31-5l-4-13.12h-9.24l9.79,24.44a3,3,0,0,1,.38,1.37,2.17,2.17,0,0,1-.44,1.2A9.55,9.55,0,0,1,251,51.25a10.48,10.48,0,0,1-3.61,1.42l1.75,7.05a15.32,15.32,0,0,0,8-3.66c3-2.68,5.58-6.94,9.4-17.55l6.23-17.6h-8.91Z"/><path d="M287.49,20.31c-9.29,0-13.5,7.49-13.5,14.27,0,8.37,5.19,13.67,14.27,13.67a26.37,26.37,0,0,0,9.68-1.69l-1.09-5.63A23.55,23.55,0,0,1,289.45,42c-3.88,0-7.27-1.64-7.54-5.08h17.22a19.74,19.74,0,0,0,.27-3.28C299.4,27,296.12,20.31,287.49,20.31Zm-5.63,10.93c.22-2.24,1.64-5.41,5.14-5.41,3.83,0,4.7,3.39,4.7,5.41Z"/><path d="M314.71,31.3c-3.28-1.15-4.32-1.8-4.32-3.06S311.54,26,313.56,26a13.12,13.12,0,0,1,5.79,1.53l1.48-5.74a17.93,17.93,0,0,0-7.54-1.53c-6.62,0-10.88,3.77-10.88,8.8-.05,3.12,2.08,6.12,7.6,8,3.12,1,3.94,1.69,3.94,3.06s-1,2.24-3.55,2.24a16.24,16.24,0,0,1-7.16-2l-1.48,6a18.89,18.89,0,0,0,8.64,1.91c7.65,0,11.59-3.72,11.59-8.69C321.93,35.62,319.79,33,314.71,31.3Z"/><polygon points="38.67 27.15 31.89 33.9 31.89 14.35 38.67 14.35 38.67 27.15"/><path d="M43.87,24.3a11.59,11.59,0,1,1-17.16,0l-4.51-4.51a18,18,0,1,0,26.18,0Z"/><path d="M35.48,0C15.37,0,4.12,14.88,0,26.7l5.48,1.45c3.66-8.94,13-22.58,30-22.58s26.33,13.64,30,22.58L71,26.7C66.83,14.88,55.58,0,35.48,0Z"/>
		</symbol>
	</defs>
</svg>