<svg xmlns="http://www.w3.org/2000/svg" width="0" height="0">
	<defs>
		<symbol id="openers-logo" viewBox="0 0 279 60.79"><title>OpenERS</title><polygon class="a" points="18.01 20.89 27.51 30.43 0 30.43 0 20.89 18.01 20.89"/><path class="a" d="M14,13.58a16.3,16.3,0,1,1,0,24.16L7.65,44.08a25.28,25.28,0,1,0,0-36.85Z"/><path class="a" d="M54.65,60.79v-47H63l.41,2.53a13.8,13.8,0,0,1,2.48-1.78,12.17,12.17,0,0,1,3-1.23,11.65,11.65,0,0,1,2.9-.37,13,13,0,0,1,8.75,3,14.78,14.78,0,0,1,4.76,7.1,26.85,26.85,0,0,1,1.19,7.5,20.35,20.35,0,0,1-1.06,6.5,16.07,16.07,0,0,1-3.26,5.67,16.44,16.44,0,0,1-5.57,4,19.29,19.29,0,0,1-8,1.53,11.75,11.75,0,0,1-4.72-1V60.79ZM68,40.75A9.12,9.12,0,0,0,73.76,39a8.4,8.4,0,0,0,3-4.07,13.61,13.61,0,0,0,.75-4.18,14.3,14.3,0,0,0-1.07-5.63,8,8,0,0,0-2.87-3.71,6.85,6.85,0,0,0-3.75-1.16,6.47,6.47,0,0,0-2.67.6A10.23,10.23,0,0,0,65,22.15a6.36,6.36,0,0,0-1.25,1.3V39.8A10.57,10.57,0,0,0,68,40.75Z"/><path class="a" d="M106.55,48.34a18.86,18.86,0,0,1-6.33-1.06A14.56,14.56,0,0,1,94.92,44a15.51,15.51,0,0,1-3.62-5.53A21,21,0,0,1,90,30.67a18.92,18.92,0,0,1,2.71-10.4A14.19,14.19,0,0,1,99.2,14.5,19,19,0,0,1,106.34,13a16.17,16.17,0,0,1,6.41,1.23,13,13,0,0,1,5,3.73A17.88,17.88,0,0,1,121,24.14a30.13,30.13,0,0,1,1.19,8.72h-23A10.64,10.64,0,0,0,100,36.5,7.87,7.87,0,0,0,101.75,39a6.57,6.57,0,0,0,2.37,1.44,8.15,8.15,0,0,0,2.7.46,11.5,11.5,0,0,0,3.49-.48,7.15,7.15,0,0,0,2.7-1.59,18,18,0,0,0,2.29-2.61l6.81,4.13a18.29,18.29,0,0,1-4.76,5.08,14.49,14.49,0,0,1-5.42,2.36A27.11,27.11,0,0,1,106.55,48.34ZM99.33,26.63h13.51a7.62,7.62,0,0,0-1.37-4,6.25,6.25,0,0,0-2.6-2.17,6.67,6.67,0,0,0-2.53-.6,6.29,6.29,0,0,0-3.5,1.08,7.37,7.37,0,0,0-2.51,2.59A7.81,7.81,0,0,0,99.33,26.63Z"/><path class="a" d="M127.41,47.56V13.81h8.34l.41,2.67A15.39,15.39,0,0,1,141,13.86a17.24,17.24,0,0,1,5.45-.9,13.41,13.41,0,0,1,7.4,1.91A10.21,10.21,0,0,1,158,20.22a22.46,22.46,0,0,1,1.19,7.37v20H150V28.31a9.29,9.29,0,0,0-1.69-6,5.71,5.71,0,0,0-4.7-2.1,7.28,7.28,0,0,0-2.86.58,13,13,0,0,0-2.48,1.37,13.87,13.87,0,0,0-1.74,1.43V47.56Z"/><path class="a" d="M170.62,47.56V.85h27.25V5.68H176.23v15h15.45v4.82H176.16V42.74h23.38v4.82Z"/><path class="a" d="M210,47.56V.85h15a22.25,22.25,0,0,1,6.79.93,13.12,13.12,0,0,1,4.77,2.58,10.16,10.16,0,0,1,2.8,4,14.11,14.11,0,0,1,.92,5.23,14.34,14.34,0,0,1-.89,5.31,11.29,11.29,0,0,1-2.46,3.88,12.23,12.23,0,0,1-3.69,2.59,17.8,17.8,0,0,1-4.58,1.38l12.72,20.79H235L222.34,27.11h-6.77V47.56Zm5.6-25.27h9q4.78,0,7.26-2.2c1.66-1.47,2.48-3.63,2.48-6.48A7.3,7.3,0,0,0,232,7.68c-1.6-1.34-3.89-2-6.87-2h-9.51Z"/><path class="a" d="M263.65,48.55a21.46,21.46,0,0,1-7.13-1.18,18.58,18.58,0,0,1-5.59-2.94,15.69,15.69,0,0,1-3.39-3.61L252,37.54a11.81,11.81,0,0,0,2.36,2.53,14.32,14.32,0,0,0,3,1.83A16.57,16.57,0,0,0,260.58,43a15.65,15.65,0,0,0,3.44.39,11.52,11.52,0,0,0,5-1,6.38,6.38,0,0,0,3.1-2.93,9,9,0,0,0,.94-4,6.69,6.69,0,0,0-1.59-4.5,13.93,13.93,0,0,0-4.4-3.28c-1.86-.95-3.77-1.81-5.71-2.58-1.45-.6-2.91-1.25-4.37-2a18,18,0,0,1-4-2.62,12.34,12.34,0,0,1-2.86-3.6A10.37,10.37,0,0,1,249.08,12a10.46,10.46,0,0,1,2.55-7.15A12.4,12.4,0,0,1,257.56,1a22.71,22.71,0,0,1,6.26-1,22,22,0,0,1,4.37.43,17.73,17.73,0,0,1,4.1,1.33A17.12,17.12,0,0,1,275.92,4a15,15,0,0,1,2.94,3.25l-4.27,3.39a13.72,13.72,0,0,0-3.37-3.25,13.58,13.58,0,0,0-3.9-1.9A12.82,12.82,0,0,0,264,5a10.63,10.63,0,0,0-4.73,1.1A7.6,7.6,0,0,0,256,8.68a5.59,5.59,0,0,0-1,3,5.83,5.83,0,0,0,.55,2.58,7,7,0,0,0,1.42,2,9.92,9.92,0,0,0,2,1.5,22.28,22.28,0,0,0,2.28,1.17c1.36.61,2.53,1.08,3.48,1.4A48.11,48.11,0,0,1,273.82,25a11.2,11.2,0,0,1,4.12,4.78A14.83,14.83,0,0,1,279,35.32a13.36,13.36,0,0,1-1.23,5.93,11.44,11.44,0,0,1-3.32,4.12,14.21,14.21,0,0,1-4.87,2.39A21.56,21.56,0,0,1,263.65,48.55Z"/>
		</symbol>
	</defs>
</svg>